<svg width="240" height="208" viewBox="0 0 240 208" fill="none" xmlns="http://www.w3.org/2000/svg">
  <path fill-rule="evenodd" clip-rule="evenodd" d="M144.375 28.4057C142.421 26.5191 140.438 24.6044 138.445 22.6212C120.255 52.6012 126.965 83.0512 155.545 101.121C159.015 103.341 160.065 105.751 160.015 109.631C159.742 130.905 159.605 152.208 159.605 173.541C159.575 192.541 173.115 206.991 190.925 207.171C209.285 207.361 222.745 193.251 222.925 173.691C222.946 171.467 222.966 169.243 222.986 167.018C223.193 144.208 223.401 121.38 223.865 98.6012C223.98 95.4101 225.065 92.3298 226.975 89.7712C244.975 66.9312 244.115 38.2112 224.535 17.2112C206.045 -2.58877 174.835 -5.93877 150.835 10.4712C152.934 12.4131 154.986 14.3664 157.022 16.3053C161.603 20.6669 166.108 24.9562 170.905 28.8812C177.245 34.0412 177.235 40.1912 175.905 46.9612C168.105 49.1412 162.195 47.2012 156.965 41.2512C153.068 36.7991 148.796 32.674 144.375 28.4057ZM144.175 54.0441C144.294 53.3265 144.44 52.4447 144.605 51.2905C145.789 52.4013 146.836 53.4497 147.812 54.4275C149.789 56.4077 151.477 58.0984 153.425 59.4305C156.125 61.1805 159.395 62.9605 162.525 63.1805C166.897 63.4805 171.288 63.441 175.68 63.4015C179.194 63.3699 182.709 63.3383 186.215 63.4805C190.635 63.6605 192.045 62.0005 191.835 57.7905C191.6 53.6238 191.68 49.4452 192.075 45.2905C193.135 35.1105 192.745 25.5705 183.075 19.1105C182.71 18.8667 182.481 18.4184 182.039 17.5504C181.756 16.9946 181.386 16.2669 180.835 15.3105C182.768 15.5245 184.562 15.6513 186.249 15.7705C189.607 16.0079 192.54 16.2151 195.295 17.0205C224.715 25.6705 233.875 61.0005 212.445 83.4205C209.515 86.2902 207.947 90.2733 208.135 94.3705C207.929 121.591 207.595 148.804 207.135 176.011C207.005 184.181 201.835 190.161 194.515 191.321C186.035 192.671 178.855 188.761 176.235 180.961C175.528 178.448 175.224 175.839 175.335 173.231C175.333 170.754 175.331 168.277 175.328 165.8C175.307 144.127 175.285 122.455 175.545 100.791C175.595 96.3205 174.245 94.2906 170.085 92.6705C154.095 86.4205 143.585 71.7305 143.845 56.6705C143.864 55.9199 143.984 55.1919 144.175 54.0441Z" fill="black"/>
  <path fill-rule="evenodd" clip-rule="evenodd" d="M111.895 45.4912L111.985 31.7312C103.185 31.4412 97.1853 35.5512 92.1653 41.3012C87.5956 46.5566 83.1043 51.8818 78.6124 57.2078C73.3433 63.4552 68.0734 69.7036 62.6753 75.8412C60.5007 78.1654 57.7621 79.8878 54.7253 80.8412C47.0903 83.2787 39.371 85.4631 31.6516 87.6475C29.0785 88.3756 26.5053 89.1037 23.9353 89.8412C11.7053 93.3512 3.36532 101.121 1.28532 113.671C-0.0467632 121.734 -0.0194446 130.058 0.00767072 138.319C0.0114959 139.485 0.0153171 140.649 0.0153171 141.811C0.0153171 151.541 6.88532 158.101 16.7053 158.331C19.8913 158.391 23.0773 158.371 26.2928 158.351C27.9116 158.341 29.5378 158.331 31.1753 158.331C31.2671 158.814 31.3473 159.227 31.4187 159.595C31.5574 160.31 31.6629 160.853 31.7553 161.401C34.6753 178.791 47.1153 190.221 63.1153 190.311C79.7153 190.431 91.4353 179.991 95.1753 162.311C95.5053 160.751 98.5653 158.701 100.405 158.701C108.298 158.528 116.199 158.586 124.104 158.643C128.057 158.672 132.011 158.701 135.965 158.701C137.567 158.708 139.183 158.602 140.839 158.493C141.54 158.447 142.248 158.4 142.965 158.361V144.021C142.253 143.948 141.586 143.863 140.951 143.782C139.669 143.619 138.512 143.471 137.355 143.471C133.132 143.403 128.91 143.361 124.687 143.318C115.301 143.224 105.919 143.131 96.5453 142.751C93.4592 142.541 90.5583 141.202 88.3953 138.991C74.1653 122.701 52.8253 122.601 38.6553 138.991L38.6329 139.017C37.4255 140.435 35.8259 142.312 34.3053 142.411C29.9021 142.703 25.4829 142.654 21.1878 142.606C19.601 142.589 18.0312 142.571 16.4853 142.571C16.1964 141.847 15.9754 141.097 15.8253 140.331C15.7653 134.181 15.7653 128.041 15.7653 121.891C15.8653 112.381 19.5953 107.401 28.7653 104.581C29.5349 104.346 30.3031 104.09 31.0718 103.835C33.2395 103.114 35.4106 102.392 37.6253 102.111C60.0753 99.2412 76.6053 87.8612 89.3453 69.2412C93.3985 63.3118 99.5492 57.4285 105.337 51.8925C107.631 49.6979 109.868 47.5579 111.895 45.4912ZM74.7719 146.98C77.8612 149.986 79.5768 154.131 79.5153 158.441C79.6662 162.745 78.047 166.923 75.035 170.001C72.0231 173.079 67.8815 174.789 63.5753 174.731C54.6891 174.839 47.398 167.723 47.2903 158.836C47.1826 149.95 54.2991 142.659 63.1853 142.551C67.4921 142.372 71.6826 143.974 74.7719 146.98Z" fill="black"/>
</svg>
